<svg width="24" height="24" viewBox="0 0 24 24" fill="none" xmlns="http://www.w3.org/2000/svg">
<path fill-rule="evenodd" clip-rule="evenodd" d="M5 9.75C5 4.91751 8.91751 1 13.75 1C18.5825 1 22.5 4.91751 22.5 9.75C22.5 14.5825 18.5825 18.5 13.75 18.5C8.91751 18.5 5 14.5825 5 9.75Z" fill="#808B9B"/>
<path d="M12.5179 6H11.625C11.2798 6 11 6.27982 11 6.625V11.375C11 11.7202 11.2798 12 11.625 12H12.5179C12.863 12 13.1429 11.7202 13.1429 11.375V6.625C13.1429 6.27982 12.863 6 12.5179 6Z" fill="#101820"/>
<path d="M15.375 6H14.4822C14.137 6 13.8572 6.27982 13.8572 6.625V13.375C13.8572 13.7202 14.137 14 14.4822 14H15.375C15.7202 14 16 13.7202 16 13.375V6.625C16 6.27982 15.7202 6 15.375 6Z" fill="#101820"/>
<path d="M3.09348 8.0701C3.28658 7.844 3.6384 8.03493 3.59758 8.32945C3.53325 8.79361 3.5 9.2677 3.5 9.74956C3.5 15.4105 8.08908 19.9996 13.75 19.9996C14.2319 19.9996 14.7059 19.9663 15.1701 19.902C15.4646 19.8612 15.6556 20.213 15.4295 20.4061C13.901 21.7114 11.9175 22.4996 9.75 22.4996C4.91751 22.4996 1 18.582 1 13.7496C1 11.582 1.78814 9.59854 3.09348 8.0701Z" fill="#808B9B"/>
</svg>
