<svg width="20" height="20" viewBox="0 0 20 20" fill="none" xmlns="http://www.w3.org/2000/svg">
<path d="M12.5 16.6667C10.6389 16.6667 9.06254 16.0209 7.77087 14.7292C6.47921 13.4375 5.83337 11.8612 5.83337 10C5.83337 8.13893 6.47921 6.56254 7.77087 5.27087C9.06254 3.97921 10.6389 3.33337 12.5 3.33337C14.3612 3.33337 15.9375 3.97921 17.2292 5.27087C18.5209 6.56254 19.1667 8.13893 19.1667 10C19.1667 11.8612 18.5209 13.4375 17.2292 14.7292C15.9375 16.0209 14.3612 16.6667 12.5 16.6667ZM5.83337 16.4584C4.36115 16.0695 3.15976 15.2778 2.22921 14.0834C1.29865 12.8889 0.833374 11.5278 0.833374 10C0.833374 8.47226 1.29865 7.11115 2.22921 5.91671C3.15976 4.72226 4.36115 3.9306 5.83337 3.54171V5.29171C4.83337 5.63893 4.02782 6.2431 3.41671 7.10421C2.8056 7.96532 2.50004 8.9306 2.50004 10C2.50004 11.0695 2.8056 12.0348 3.41671 12.8959C4.02782 13.757 4.83337 14.3612 5.83337 14.7084V16.4584Z" fill="#61F0FE"/>
</svg>
