<svg width="20" height="20" viewBox="0 0 20 20" fill="none" xmlns="http://www.w3.org/2000/svg">
<path opacity="0.2" d="M10.0476 1.4585C11.8732 1.45849 13.3071 1.45848 14.4266 1.60899C15.5738 1.76323 16.4841 2.08576 17.1992 2.80092C17.9144 3.51609 18.2369 4.4263 18.3911 5.57351C18.5416 6.69302 18.5416 8.12691 18.5416 9.95251V10.0478C18.5416 11.8734 18.5416 13.3073 18.3911 14.4268C18.2369 15.574 17.9144 16.4843 17.1992 17.1994C16.4841 17.9146 15.5738 18.2371 14.4266 18.3913C13.3071 18.5418 11.8732 18.5418 10.0476 18.5418H9.95231C8.12673 18.5418 6.69284 18.5418 5.57333 18.3913C4.42612 18.2371 3.5159 17.9146 2.80074 17.1994C2.08557 16.4843 1.76305 15.574 1.6088 14.4268C1.4583 13.3073 1.4583 11.8734 1.45831 10.0478V9.95251C1.4583 8.12693 1.4583 6.69303 1.6088 5.57351C1.76305 4.4263 2.08558 3.51609 2.80074 2.80092C3.5159 2.08576 4.42612 1.76323 5.57333 1.60899C6.69285 1.45848 8.12675 1.45849 9.95231 1.4585H10.0476Z" fill="#CDA747"/>
<path fill-rule="evenodd" clip-rule="evenodd" d="M9.16669 13.7493C9.16669 13.2891 9.5381 12.916 9.99627 12.916H10.0038C10.4619 12.916 10.8334 13.2891 10.8334 13.7493C10.8334 14.2096 10.4619 14.5827 10.0038 14.5827H9.99627C9.5381 14.5827 9.16669 14.2096 9.16669 13.7493Z" fill="#CDA747"/>
<path fill-rule="evenodd" clip-rule="evenodd" d="M10.0001 11.2495C9.53983 11.2495 9.16675 10.8764 9.16675 10.4162V7.08285C9.16675 6.62261 9.53983 6.24951 10.0001 6.24951C10.4603 6.24951 10.8334 6.62261 10.8334 7.08285V10.4162C10.8334 10.8764 10.4603 11.2495 10.0001 11.2495Z" fill="#CDA747"/>
</svg>
