<svg width="154" height="25" viewBox="0 0 154 25" fill="none" xmlns="http://www.w3.org/2000/svg">
<path d="M149.91 19C149.182 19 148.618 18.8006 148.22 18.402C147.838 18.0033 147.648 17.4573 147.648 16.764V8.07996H143.826V6.28596H147.648V1.76196H149.702V6.28596H153.862V8.07996H149.702V16.452C149.702 16.972 149.953 17.232 150.456 17.232H153.29V19H149.91Z" fill="#61F0FE"/>
<path d="M138.02 19.3641C136.738 19.3641 135.611 19.0955 134.64 18.5581C133.67 18.0035 132.916 17.2321 132.378 16.2441C131.841 15.2561 131.572 14.1121 131.572 12.8121V12.5001C131.572 11.1828 131.841 10.0301 132.378 9.04212C132.916 8.05412 133.661 7.29145 134.614 6.75412C135.568 6.19945 136.66 5.92212 137.89 5.92212C139.086 5.92212 140.144 6.18212 141.062 6.70212C141.981 7.20479 142.7 7.93279 143.22 8.88612C143.74 9.83945 144 10.9575 144 12.2401V13.1761H133.626C133.678 14.5455 134.12 15.6201 134.952 16.4001C135.784 17.1628 136.824 17.5441 138.072 17.5441C139.164 17.5441 140.005 17.2928 140.594 16.7901C141.184 16.2875 141.634 15.6895 141.946 14.9961L143.714 15.8541C143.454 16.3915 143.09 16.9288 142.622 17.4661C142.172 18.0035 141.574 18.4541 140.828 18.8181C140.1 19.1821 139.164 19.3641 138.02 19.3641ZM133.652 11.4861H141.92C141.851 10.3075 141.444 9.38879 140.698 8.73012C139.97 8.07145 139.034 7.74212 137.89 7.74212C136.729 7.74212 135.776 8.07145 135.03 8.73012C134.285 9.38879 133.826 10.3075 133.652 11.4861Z" fill="#61F0FE"/>
<path d="M127.643 19V0.800049H129.697V19H127.643Z" fill="#61F0FE"/>
<path d="M123.09 19V0.800049H125.144V19H123.09Z" fill="#61F0FE"/>
<path d="M113.855 19.3641C112.971 19.3641 112.165 19.2081 111.437 18.8961C110.709 18.5841 110.137 18.1335 109.721 17.5441C109.305 16.9548 109.097 16.2355 109.097 15.3861C109.097 14.5195 109.305 13.8088 109.721 13.2541C110.137 12.6821 110.709 12.2575 111.437 11.9801C112.165 11.6855 112.98 11.5381 113.881 11.5381H118.171V10.6021C118.171 9.70079 117.903 8.99012 117.365 8.47012C116.845 7.95012 116.065 7.69012 115.025 7.69012C114.003 7.69012 113.205 7.94145 112.633 8.44412C112.061 8.92945 111.671 9.58812 111.463 10.4201L109.539 9.79612C109.747 9.08545 110.077 8.44412 110.527 7.87212C110.978 7.28279 111.576 6.81479 112.321 6.46812C113.084 6.10412 113.994 5.92212 115.051 5.92212C116.681 5.92212 117.946 6.34679 118.847 7.19612C119.749 8.02812 120.199 9.20679 120.199 10.7321V16.4781C120.199 16.9981 120.442 17.2581 120.927 17.2581H122.097V19.0001H120.303C119.731 19.0001 119.272 18.8441 118.925 18.5321C118.579 18.2028 118.405 17.7695 118.405 17.2321V17.1021H118.093C117.903 17.4315 117.643 17.7781 117.313 18.1421C117.001 18.4888 116.568 18.7748 116.013 19.0001C115.459 19.2428 114.739 19.3641 113.855 19.3641ZM114.089 17.5961C115.303 17.5961 116.282 17.2408 117.027 16.5301C117.79 15.8021 118.171 14.7881 118.171 13.4881V13.2021H113.959C113.145 13.2021 112.469 13.3841 111.931 13.7481C111.411 14.0948 111.151 14.6235 111.151 15.3341C111.151 16.0448 111.42 16.5995 111.957 16.9981C112.512 17.3968 113.223 17.5961 114.089 17.5961Z" fill="#61F0FE"/>
<path d="M92.9259 19.0001L90.3779 6.28613H92.4579L94.5639 17.6221H94.9279L97.7099 6.28613H101.116L103.898 17.6221H104.262L106.368 6.28613H108.448L105.9 19.0001H102.39L99.5819 7.66413H99.2439L96.4359 19.0001H92.9259Z" fill="#61F0FE"/>
<path d="M5.25 1H0.75C0.335786 1 0 1.33579 0 1.75V18.25C0 18.6642 0.335786 19 0.75 19H5.25C5.66421 19 6 18.6642 6 18.25V1.75C6 1.33579 5.66421 1 5.25 1Z" fill="white"/>
<path d="M13.25 1H8.75C8.33579 1 8 1.33579 8 1.75V24.25C8 24.6642 8.33579 25 8.75 25H13.25C13.6642 25 14 24.6642 14 24.25V1.75C14 1.33579 13.6642 1 13.25 1Z" fill="white"/>
<path d="M78.2335 19.5641C77.0029 19.5641 75.8848 19.3041 74.8795 18.7841C73.8915 18.2641 73.1028 17.5101 72.5135 16.5221C71.9415 15.5341 71.6555 14.3467 71.6555 12.9601V12.6221C71.6555 11.2354 71.9415 10.0567 72.5135 9.08607C73.1028 8.09807 73.8915 7.34407 74.8795 6.82407C75.8848 6.28673 77.0029 6.01807 78.2335 6.01807C79.4642 6.01807 80.5128 6.2434 81.3795 6.69407C82.2462 7.14473 82.9395 7.74273 83.4595 8.48807C83.9969 9.2334 84.3435 10.0567 84.4995 10.9581L81.8995 11.5041C81.8129 10.9321 81.6308 10.4121 81.3535 9.94407C81.0762 9.47607 80.6862 9.1034 80.1835 8.82607C79.6809 8.54873 79.0482 8.41007 78.2855 8.41007C77.5402 8.41007 76.8642 8.5834 76.2575 8.93007C75.6682 9.2594 75.2002 9.74473 74.8535 10.3861C74.5068 11.0101 74.3335 11.7727 74.3335 12.6741V12.9081C74.3335 13.8094 74.5068 14.5807 74.8535 15.2221C75.2002 15.8634 75.6682 16.3487 76.2575 16.6781C76.8642 17.0074 77.5402 17.1721 78.2855 17.1721C79.4122 17.1721 80.2702 16.8861 80.8595 16.3141C81.4488 15.7247 81.8215 14.9794 81.9775 14.0781L84.5775 14.6761C84.3695 15.5601 83.9969 16.3747 83.4595 17.1201C82.9395 17.8654 82.2462 18.4634 81.3795 18.9141C80.5128 19.3474 79.4642 19.5641 78.2335 19.5641Z" fill="white"/>
<path d="M67.4473 19.2V6.382H70.1252V19.2H67.4473ZM68.7992 4.64C68.2792 4.64 67.8372 4.47533 67.4732 4.146C67.1266 3.79933 66.9532 3.35733 66.9532 2.82C66.9532 2.28267 67.1266 1.84933 67.4732 1.52C67.8372 1.17333 68.2792 1 68.7992 1C69.3366 1 69.7786 1.17333 70.1252 1.52C70.4719 1.84933 70.6452 2.28267 70.6452 2.82C70.6452 3.35733 70.4719 3.79933 70.1252 4.146C69.7786 4.47533 69.3366 4.64 68.7992 4.64Z" fill="white"/>
<path d="M60.021 19.564C58.773 19.564 57.811 19.3387 57.135 18.888C56.4763 18.4373 55.9823 17.9347 55.653 17.38H55.237V19.2H52.611V1H55.289V8.124H55.705C55.913 7.77733 56.1903 7.448 56.537 7.136C56.8836 6.80667 57.343 6.538 57.915 6.33C58.487 6.122 59.189 6.018 60.021 6.018C61.0956 6.018 62.0836 6.278 62.985 6.798C63.8863 7.318 64.6056 8.072 65.143 9.06C65.6803 10.048 65.949 11.2267 65.949 12.596V12.986C65.949 14.3727 65.6716 15.56 65.117 16.548C64.5796 17.5187 63.8603 18.264 62.959 18.784C62.075 19.304 61.0956 19.564 60.021 19.564ZM59.241 17.224C60.4023 17.224 61.3556 16.8513 62.101 16.106C62.8636 15.3607 63.245 14.2947 63.245 12.908V12.674C63.245 11.3047 62.8723 10.2473 62.127 9.502C61.3816 8.75667 60.4196 8.384 59.241 8.384C58.097 8.384 57.1436 8.75667 56.381 9.502C55.6356 10.2473 55.263 11.3047 55.263 12.674V12.908C55.263 14.2947 55.6356 15.3607 56.381 16.106C57.1436 16.8513 58.097 17.224 59.241 17.224Z" fill="white"/>
<path d="M43.3742 19.4341C42.4035 19.4341 41.5369 19.2174 40.7742 18.7841C40.0115 18.3507 39.4135 17.7354 38.9802 16.9381C38.5469 16.1407 38.3302 15.1874 38.3302 14.0781V6.38208H41.0082V13.8961C41.0082 15.0054 41.2855 15.8287 41.8402 16.3661C42.3949 16.8861 43.1662 17.1461 44.1542 17.1461C45.2462 17.1461 46.1215 16.7821 46.7802 16.0541C47.4562 15.3087 47.7942 14.2427 47.7942 12.8561V6.38208H50.4722V19.2001H47.8462V17.2761H47.4302C47.1875 17.7961 46.7542 18.2901 46.1302 18.7581C45.5062 19.2087 44.5875 19.4341 43.3742 19.4341Z" fill="white"/>
<path d="M33.66 24.4001V17.4581H33.244C33.0533 17.8047 32.776 18.1427 32.412 18.4721C32.048 18.7841 31.58 19.0441 31.008 19.2521C30.4533 19.4601 29.76 19.5641 28.928 19.5641C27.8533 19.5641 26.8653 19.3041 25.964 18.7841C25.0627 18.2641 24.3433 17.5187 23.806 16.5481C23.2687 15.5601 23 14.3727 23 12.9861V12.5961C23 11.2094 23.2687 10.0307 23.806 9.06007C24.3607 8.07207 25.0887 7.31807 25.99 6.79807C26.8913 6.27807 27.8707 6.01807 28.928 6.01807C30.176 6.01807 31.1293 6.2434 31.788 6.69407C32.464 7.14473 32.9667 7.65607 33.296 8.22807H33.712V6.38207H36.338V24.4001H33.66ZM29.682 17.2241C30.8607 17.2241 31.8227 16.8514 32.568 16.1061C33.3133 15.3607 33.686 14.2947 33.686 12.9081V12.6741C33.686 11.3047 33.3047 10.2474 32.542 9.50207C31.7967 8.75673 30.8433 8.38407 29.682 8.38407C28.538 8.38407 27.5847 8.75673 26.822 9.50207C26.0767 10.2474 25.704 11.3047 25.704 12.6741V12.9081C25.704 14.2947 26.0767 15.3607 26.822 16.1061C27.5847 16.8514 28.538 17.2241 29.682 17.2241Z" fill="white"/>
</svg>
